# OBJ written from E:\GitHub\OpenGL\Work\Silk_OpenGL\Silk_OpenGL\Assets\Box.obj
mtllib Box.mtl
# Units	meters

g Cube
v -0.5 -0.5 -0.5
v 0.5 -0.5 -0.5
v 0.5 -0.5 0.5
v -0.5 -0.5 0.5
v -0.5 0.5 -0.5
v 0.5 0.5 -0.5
v 0.5 0.5 0.5
v -0.5 0.5 0.5
vn 0 -1 0
vn 0 0 -1
vn 1 0 0
vn 0 0 1
vn -1 0 0
vn 0 1 0
vt 0.25 0
vt 0.5 0
vt 0.5 0.333333
vt 0.25 0.333333
vt 1 0.666667
vt 0.75 0.666667
vt 0.75 0.333333
vt 1 0.333333
vt 0.5 0.666667
vt 0.25 0.666667
vt 0 0.666667
vt 0 0.333333
vt 0.25 1
vt 0.5 1
usemtl Default
f 1/1/1 2/2/1 3/3/1 4/4/1
f 5/5/2 6/6/2 2/7/2 1/8/2
f 6/6/3 7/9/3 3/3/3 2/7/3
f 7/9/4 8/10/4 4/4/4 3/3/4
f 8/10/5 5/11/5 1/12/5 4/4/5
f 5/13/6 8/10/6 7/9/6 6/14/6

g Cube (2)
v -0.5 -0.5 -0.5
v 0.5 -0.5 -0.5
v 0.5 -0.5 0.5
v -0.5 -0.5 0.5
v -0.5 0.5 -0.5
v 0.5 0.5 -0.5
v 0.5 0.5 0.5
v -0.5 0.5 0.5
vn 0 -1 0
vn 0 0 -1
vn 1 0 0
vn 0 0 1
vn -1 0 0
vn 0 1 0
vt 0.25 0
vt 0.5 0
vt 0.5 0.333333
vt 0.25 0.333333
vt 1 0.666667
vt 0.75 0.666667
vt 0.75 0.333333
vt 1 0.333333
vt 0.5 0.666667
vt 0.25 0.666667
vt 0 0.666667
vt 0 0.333333
vt 0.25 1
vt 0.5 1
usemtl Default
f 9/15/7 10/16/7 11/17/7 12/18/7
f 13/19/8 14/20/8 10/21/8 9/22/8
f 14/20/9 15/23/9 11/17/9 10/21/9
f 15/23/10 16/24/10 12/18/10 11/17/10
f 16/24/11 13/25/11 9/26/11 12/18/11
f 13/27/12 16/24/12 15/23/12 14/28/12

g Cube (3)
v -0.5 -0.5 -0.5
v 0.5 -0.5 -0.5
v 0.5 -0.5 0.5
v -0.5 -0.5 0.5
v -0.5 0.5 -0.5
v 0.5 0.5 -0.5
v 0.5 0.5 0.5
v -0.5 0.5 0.5
vn 0 -1 0
vn 0 0 -1
vn 1 0 0
vn 0 0 1
vn -1 0 0
vn 0 1 0
vt 0.25 0
vt 0.5 0
vt 0.5 0.333333
vt 0.25 0.333333
vt 1 0.666667
vt 0.75 0.666667
vt 0.75 0.333333
vt 1 0.333333
vt 0.5 0.666667
vt 0.25 0.666667
vt 0 0.666667
vt 0 0.333333
vt 0.25 1
vt 0.5 1
usemtl Default
f 17/29/13 18/30/13 19/31/13 20/32/13
f 21/33/14 22/34/14 18/35/14 17/36/14
f 22/34/15 23/37/15 19/31/15 18/35/15
f 23/37/16 24/38/16 20/32/16 19/31/16
f 24/38/17 21/39/17 17/40/17 20/32/17
f 21/41/18 24/38/18 23/37/18 22/42/18

g Cube (4)
v -0.5 -0.5 -0.5
v 0.5 -0.5 -0.5
v 0.5 -0.5 0.5
v -0.5 -0.5 0.5
v -0.5 0.5 -0.5
v 0.5 0.5 -0.5
v 0.5 0.5 0.5
v -0.5 0.5 0.5
vn 0 -1 0
vn 0 0 -1
vn 1 0 0
vn 0 0 1
vn -1 0 0
vn 0 1 0
vt 0.25 0
vt 0.5 0
vt 0.5 0.333333
vt 0.25 0.333333
vt 1 0.666667
vt 0.75 0.666667
vt 0.75 0.333333
vt 1 0.333333
vt 0.5 0.666667
vt 0.25 0.666667
vt 0 0.666667
vt 0 0.333333
vt 0.25 1
vt 0.5 1
usemtl Default
f 25/43/19 26/44/19 27/45/19 28/46/19
f 29/47/20 30/48/20 26/49/20 25/50/20
f 30/48/21 31/51/21 27/45/21 26/49/21
f 31/51/22 32/52/22 28/46/22 27/45/22
f 32/52/23 29/53/23 25/54/23 28/46/23
f 29/55/24 32/52/24 31/51/24 30/56/24
